<svg width="120" height="40" viewBox="0 0 120 40" fill="none" xmlns="http://www.w3.org/2000/svg">
<g clip-path="url(#clip0_28_46)">
<path d="M110.444 0.00013H9.56145C9.19372 0.00013 8.8304 0.00013 8.46364 0.00213C8.15663 0.00413 7.85207 0.00994 7.54211 0.01483C6.86874 0.0227318 6.19695 0.0818063 5.53259 0.19154C4.86915 0.303663 4.2265 0.515046 3.62637 0.81854C3.02697 1.1246 2.47929 1.5223 2.00318 1.9972C1.52457 2.47077 1.12561 3.01815 0.82165 3.61829C0.516847 4.21724 0.305496 4.85907 0.194896 5.52161C0.083244 6.18332 0.0231632 6.85265 0.0151925 7.52361C0.00588648 7.83021 0.00490373 8.13783 0 8.44447V31.5587C0.00490373 31.8692 0.00588648 32.17 0.0151925 32.4806C0.0231657 33.1516 0.0832464 33.8209 0.194896 34.4825C0.30519 35.1455 0.516554 35.7877 0.82165 36.3868C1.12548 36.985 1.52449 37.5302 2.00318 38.0011C2.47748 38.4781 3.02552 38.8761 3.62637 39.1798C4.2265 39.4841 4.86908 39.6968 5.53259 39.8106C6.19707 39.9195 6.86879 39.9786 7.54211 39.9874C7.85207 39.9942 8.15663 39.9981 8.46364 39.9981C8.83039 40.0001 9.19374 40.0001 9.56145 40.0001H110.444C110.804 40.0001 111.171 40.0001 111.531 39.9981C111.837 39.9981 112.15 39.9942 112.455 39.9874C113.128 39.9791 113.798 39.92 114.461 39.8106C115.127 39.696 115.772 39.4834 116.375 39.1798C116.975 38.8759 117.522 38.478 117.996 38.0011C118.474 37.5284 118.874 36.9836 119.181 36.3868C119.484 35.7872 119.693 35.1451 119.802 34.4825C119.914 33.8208 119.976 33.1516 119.988 32.4806C119.992 32.17 119.992 31.8692 119.992 31.5587C120 31.1954 120 30.8341 120 30.4649V9.53626C120 9.17005 120 8.80677 119.992 8.44447C119.992 8.13783 119.992 7.83021 119.988 7.52357C119.976 6.85255 119.914 6.18337 119.802 5.52157C119.693 4.85941 119.484 4.21763 119.181 3.61825C118.562 2.41533 117.581 1.43616 116.375 0.81845C115.772 0.515697 115.127 0.30437 114.461 0.19145C113.798 0.0812328 113.128 0.0221378 112.455 0.01469C112.15 0.00981 111.837 0.00395 111.531 0.002C111.171 0 110.804 0.00013 110.444 0.00013Z" fill="#A6A6A6"/>
<path d="M8.46853 39.125C8.163 39.125 7.86484 39.1211 7.56171 39.1143C6.93373 39.1061 6.30722 39.0516 5.68732 38.9512C5.10929 38.8519 4.54934 38.6673 4.02593 38.4033C3.50732 38.1415 3.0343 37.7983 2.62501 37.3867C2.20978 36.98 1.86409 36.5082 1.60163 35.9902C1.33628 35.4688 1.15264 34.9099 1.05711 34.333C0.953942 33.7131 0.898126 33.0863 0.890139 32.458C0.883781 32.2471 0.875458 31.5449 0.875458 31.5449V8.44434C0.875458 8.44434 0.884323 7.75293 0.890189 7.5498C0.897836 6.92248 0.953328 6.29665 1.05618 5.67773C1.15189 5.09925 1.33567 4.53875 1.60117 4.01563C1.86267 3.49794 2.20644 3.02586 2.61916 2.61768C3.03142 2.20562 3.50594 1.8606 4.02544 1.59521C4.54764 1.33209 5.10654 1.14873 5.6834 1.05127C6.30534 0.949836 6.93402 0.894996 7.56417 0.88721L8.46903 0.875H111.526L112.442 0.8877C113.066 0.895099 113.689 0.94945 114.305 1.05029C114.888 1.14898 115.453 1.33362 115.981 1.59814C117.022 2.13299 117.869 2.97916 118.403 4.01807C118.664 4.53758 118.845 5.09351 118.939 5.66699C119.044 6.29099 119.102 6.92174 119.114 7.5542C119.117 7.8374 119.117 8.1416 119.117 8.44434C119.125 8.81934 119.125 9.17627 119.125 9.53613V30.4648C119.125 30.8281 119.125 31.1826 119.117 31.54C119.117 31.8652 119.117 32.1631 119.113 32.4697C119.101 33.0909 119.044 33.7104 118.941 34.3232C118.848 34.9043 118.665 35.4675 118.4 35.9932C118.135 36.5056 117.792 36.9733 117.381 37.3789C116.972 37.7927 116.498 38.1379 115.978 38.4014C115.451 38.6674 114.887 38.8527 114.305 38.9512C113.685 39.0522 113.059 39.1067 112.431 39.1143C112.137 39.1211 111.83 39.125 111.531 39.125L110.444 39.127L8.46853 39.125Z" fill="black"/>
<path d="M24.8384 20.3006C24.8492 19.4659 25.0715 18.6475 25.4847 17.9216C25.8979 17.1956 26.4885 16.5857 27.2016 16.1485C26.7486 15.5034 26.151 14.9724 25.4562 14.5979C24.7614 14.2233 23.9887 14.0155 23.1992 13.9908C21.5153 13.8146 19.8828 14.9957 19.0247 14.9957C18.1499 14.9957 16.8287 14.0083 15.406 14.0375C14.4858 14.0672 13.5889 14.334 12.8028 14.8121C12.0168 15.2901 11.3683 15.9631 10.9205 16.7654C8.98111 20.1138 10.4278 25.0349 12.2856 27.7415C13.2151 29.0668 14.3014 30.5473 15.7228 30.4948C17.1138 30.4372 17.6333 29.6103 19.3123 29.6103C20.9757 29.6103 21.4631 30.4948 22.9133 30.4614C24.4059 30.4372 25.3463 29.1302 26.2432 27.7923C26.911 26.8479 27.4249 25.8042 27.7659 24.6997C26.8987 24.334 26.1587 23.7218 25.6382 22.9395C25.1176 22.1572 24.8394 21.2394 24.8384 20.3006Z" fill="white"/>
<path d="M22.0991 12.2108C22.9129 11.2366 23.3139 9.98445 23.2168 8.72021C21.9735 8.85044 20.825 9.44299 20.0002 10.3798C19.5969 10.8375 19.288 11.3699 19.0913 11.9467C18.8945 12.5235 18.8136 13.1333 18.8533 13.7412C19.4751 13.7476 20.0904 13.6132 20.6526 13.3481C21.2148 13.083 21.7094 12.6942 22.0991 12.2108Z" fill="white"/>
<path d="M42.421 27.1397H37.6743L36.5344 30.4961H34.5239L39.0199 18.0781H41.1088L45.6047 30.4961H43.56L42.421 27.1397ZM38.166 25.5908H41.9285L40.0737 20.1436H40.0218L38.166 25.5908Z" fill="white"/>
<path d="M55.3146 25.9697C55.3146 28.7832 53.8045 30.5908 51.5256 30.5908C50.9484 30.6209 50.3743 30.4883 49.869 30.2082C49.3638 29.928 48.948 29.5117 48.669 29.0068H48.6259V33.4912H46.7623V21.4423H48.5662V22.9482H48.6005C48.8922 22.4457 49.3151 22.0316 49.8242 21.7497C50.3332 21.4679 50.9094 21.3289 51.4914 21.3476C53.7956 21.3476 55.3146 23.164 55.3146 25.9697ZM53.399 25.9697C53.399 24.1367 52.4491 22.9316 50.9997 22.9316C49.5758 22.9316 48.6181 24.1621 48.6181 25.9697C48.6181 27.7939 49.5758 29.0156 50.9997 29.0156C52.4491 29.0156 53.399 27.8193 53.399 25.9697Z" fill="white"/>
<path d="M65.3074 25.9697C65.3074 28.7832 63.7973 30.5908 61.5184 30.5908C60.9412 30.6209 60.3671 30.4883 59.8618 30.2081C59.3566 29.928 58.9408 29.5117 58.6618 29.0068H58.6187V33.4912H56.7551V21.4423H58.5589V22.9482H58.5932C58.885 22.4457 59.3079 22.0315 59.817 21.7497C60.326 21.4679 60.9022 21.3289 61.4841 21.3476C63.7885 21.3476 65.3074 23.164 65.3074 25.9697ZM63.3918 25.9697C63.3918 24.1367 62.4419 22.9316 60.9925 22.9316C59.5686 22.9316 58.6109 24.1621 58.6109 25.9697C58.6109 27.7939 59.5686 29.0156 60.9925 29.0156C62.4419 29.0156 63.3918 27.8193 63.3918 25.9697Z" fill="white"/>
<path d="M71.9118 27.0362C72.0499 28.2676 73.2495 29.0762 74.8889 29.0762C76.4597 29.0762 77.5898 28.2676 77.5898 27.1572C77.5898 26.1934 76.9082 25.6162 75.2943 25.2207L73.6804 24.833C71.3938 24.2822 70.3322 23.2158 70.3322 21.4854C70.3322 19.3428 72.2046 17.8711 74.8634 17.8711C77.4948 17.8711 79.2987 19.3428 79.3594 21.4854H77.4781C77.3655 20.2461 76.3382 19.4981 74.837 19.4981C73.3357 19.4981 72.3084 20.2549 72.3084 21.3565C72.3084 22.2344 72.9645 22.751 74.5696 23.1465L75.9416 23.4824C78.4966 24.0849 79.5582 25.1084 79.5582 26.9248C79.5582 29.248 77.7024 30.7031 74.7508 30.7031C71.9891 30.7031 70.1245 29.2822 70.0041 27.0361L71.9118 27.0362Z" fill="white"/>
<path d="M83.5802 19.2998V21.4424H85.3067V22.9141H83.5802V27.9053C83.5802 28.6807 83.9259 29.042 84.6848 29.042C84.8898 29.0384 85.0944 29.0241 85.2979 28.999V30.4619C84.9567 30.5255 84.6098 30.5543 84.2628 30.5478C82.4246 30.5478 81.7078 29.8593 81.7078 28.1035V22.9141H80.3877V21.4424H81.7077V19.2998H83.5802Z" fill="white"/>
<path d="M86.3066 25.9697C86.3066 23.1211 87.989 21.3311 90.6126 21.3311C93.245 21.3311 94.9196 23.1211 94.9196 25.9697C94.9196 28.8262 93.2538 30.6084 90.6126 30.6084C87.9724 30.6084 86.3066 28.8262 86.3066 25.9697ZM93.0207 25.9697C93.0207 24.0156 92.1227 22.8623 90.6126 22.8623C89.1025 22.8623 88.2055 24.0244 88.2055 25.9697C88.2055 27.9316 89.1025 29.0762 90.6126 29.0762C92.1227 29.0762 93.0207 27.9316 93.0207 25.9697Z" fill="white"/>
<path d="M96.4561 21.4425H98.2335V22.9835H98.2766C98.3969 22.5022 98.6796 22.0769 99.0773 21.779C99.475 21.4811 99.9634 21.3288 100.46 21.3478C100.675 21.347 100.889 21.3703 101.099 21.4171V23.1554C100.828 23.0728 100.545 23.0348 100.262 23.0431C99.9909 23.0321 99.721 23.0797 99.4704 23.1826C99.2199 23.2855 98.9946 23.4412 98.8102 23.6391C98.6257 23.837 98.4863 24.0724 98.4016 24.3291C98.317 24.5857 98.289 24.8576 98.3197 25.1261V30.4962H96.4561L96.4561 21.4425Z" fill="white"/>
<path d="M109.691 27.8369C109.441 29.4805 107.836 30.6084 105.782 30.6084C103.141 30.6084 101.501 28.8437 101.501 26.0127C101.501 23.1729 103.15 21.3311 105.704 21.3311C108.216 21.3311 109.795 23.0518 109.795 25.7969V26.4336H103.383V26.5459C103.353 26.8791 103.395 27.2148 103.505 27.5306C103.616 27.8464 103.793 28.1352 104.024 28.3778C104.255 28.6203 104.535 28.8111 104.845 28.9374C105.156 29.0637 105.49 29.1226 105.825 29.1103C106.265 29.1515 106.707 29.0498 107.085 28.8203C107.463 28.5909 107.756 28.246 107.922 27.8369L109.691 27.8369ZM103.392 25.1348H107.931C107.947 24.8352 107.902 24.5354 107.797 24.2541C107.692 23.9729 107.53 23.7164 107.321 23.5006C107.111 23.2849 106.86 23.1145 106.582 23.0003C106.303 22.8861 106.004 22.8305 105.704 22.8369C105.4 22.8351 105.099 22.8933 104.819 23.008C104.538 23.1227 104.282 23.2918 104.067 23.5054C103.853 23.7191 103.682 23.973 103.566 24.2527C103.45 24.5323 103.391 24.8321 103.392 25.1348Z" fill="white"/>
<path d="M35.7711 14.6977V8.73096H38.1762C39.3005 8.73096 39.9762 9.30127 39.9762 10.2192C39.9764 10.5208 39.8722 10.8132 39.681 11.0468C39.4899 11.2805 39.2236 11.4411 38.9274 11.5015V11.5718C39.295 11.5891 39.6413 11.7486 39.8929 12.0165C40.1445 12.2843 40.2815 12.6394 40.2749 13.0063C40.2749 14.0566 39.5081 14.6978 38.2301 14.6978L35.7711 14.6977ZM36.7004 11.2573H37.8031C38.6248 11.2573 39.0517 10.9555 39.0517 10.3891C39.0517 9.83883 38.6492 9.51656 37.9608 9.51656H36.7004V11.2573ZM38.044 13.9121C38.8814 13.9121 39.3249 13.5727 39.3249 12.9404C39.3249 12.3159 38.8647 11.9892 37.9902 11.9892H36.7004V13.9121H38.044Z" fill="white"/>
<path d="M41.2297 13.4243C41.2297 12.6138 41.8349 12.1465 42.9092 12.0801L44.1324 12.0098V11.6211C44.1324 11.1455 43.817 10.877 43.2079 10.877C42.7104 10.877 42.3657 11.0591 42.2668 11.3774H41.404C41.4951 10.604 42.2247 10.1079 43.249 10.1079C44.3811 10.1079 45.0196 10.6699 45.0196 11.6211V14.6978H44.1617V14.0649H44.0912C43.9481 14.2919 43.7472 14.477 43.5089 14.6012C43.2706 14.7254 43.0035 14.7843 42.7349 14.7719C42.5453 14.7916 42.3537 14.7714 42.1725 14.7127C41.9912 14.654 41.8243 14.5581 41.6825 14.4311C41.5407 14.3042 41.4271 14.149 41.3491 13.9756C41.2711 13.8021 41.2305 13.6144 41.2297 13.4243ZM44.1324 13.0395V12.6631L43.0297 12.7334C42.4078 12.7749 42.1258 12.9858 42.1258 13.3828C42.1258 13.7881 42.4783 14.0239 42.9631 14.0239C43.1052 14.0382 43.2486 14.0239 43.385 13.9819C43.5214 13.9398 43.6479 13.8707 43.757 13.7789C43.8661 13.6871 43.9555 13.5743 44.02 13.4473C44.0845 13.3202 44.1227 13.1816 44.1324 13.0395Z" fill="white"/>
<path d="M46.2986 8.86336C46.2917 8.74826 46.3197 8.63375 46.3788 8.53467C46.438 8.43559 46.5256 8.3565 46.6303 8.30765C46.735 8.2588 46.8521 8.24243 46.9662 8.26067C47.0804 8.27891 47.1865 8.33091 47.2707 8.40995C47.3548 8.48898 47.4133 8.59141 47.4384 8.70395C47.4636 8.8165 47.4543 8.93398 47.4117 9.04118C47.3691 9.14838 47.2952 9.24035 47.1996 9.3052C47.104 9.37004 46.991 9.40476 46.8754 9.40486C46.8015 9.40862 46.7276 9.39743 46.6581 9.37198C46.5887 9.34653 46.5251 9.30733 46.4712 9.25675C46.4173 9.20617 46.3743 9.14525 46.3446 9.07764C46.3149 9.01004 46.2993 8.93715 46.2986 8.86336ZM46.4308 10.1949H47.319V14.6978H46.4308L46.4308 10.1949Z" fill="white"/>
<path d="M50.3774 13.1016L49.3903 14.6978H48.4119L49.9093 12.4565L48.3992 10.1948H49.4402L50.4107 11.7827H50.4812L51.4429 10.1948H52.4339L50.9454 12.4194L52.4506 14.6978H51.4272L50.444 13.1016H50.3774Z" fill="white"/>
<path d="M53.2369 13.4243C53.2369 12.6138 53.8422 12.1465 54.9164 12.0801L56.1396 12.0098V11.6211C56.1396 11.1455 55.8243 10.877 55.2151 10.877C54.7177 10.877 54.3729 11.0591 54.274 11.3774H53.4113C53.5023 10.604 54.2319 10.1079 55.2563 10.1079C56.3883 10.1079 57.0268 10.6699 57.0268 11.6211V14.6978H56.169V14.0649H56.0985C55.9554 14.2919 55.7544 14.477 55.5161 14.6012C55.2778 14.7254 55.0107 14.7843 54.7421 14.7719C54.5526 14.7916 54.361 14.7714 54.1797 14.7127C53.9984 14.654 53.8315 14.5581 53.6897 14.4311C53.5479 14.3042 53.4343 14.149 53.3563 13.9756C53.2784 13.8021 53.2377 13.6144 53.2369 13.4243ZM56.1396 13.0395V12.6631L55.0369 12.7334C54.415 12.7749 54.133 12.9858 54.133 13.3828C54.133 13.7881 54.4855 14.0239 54.9703 14.0239C55.1124 14.0382 55.2559 14.0239 55.3923 13.9819C55.5286 13.9398 55.6551 13.8707 55.7642 13.7789C55.8733 13.6871 55.9628 13.5743 56.0273 13.4473C56.0917 13.3202 56.1299 13.1816 56.1396 13.0395Z" fill="white"/>
<path d="M58.4224 10.1949H59.2802V10.8853H59.3468C59.4429 10.6457 59.6126 10.4425 59.8317 10.305C60.0507 10.1676 60.3078 10.1028 60.5661 10.1202C60.6995 10.1184 60.8328 10.1308 60.9637 10.1573V11.0343C60.8001 10.9995 60.6334 10.9815 60.4662 10.9806C60.3192 10.9674 60.1711 10.9851 60.0313 11.0324C59.8916 11.0797 59.7633 11.1557 59.6548 11.2554C59.5462 11.3551 59.4598 11.4763 59.401 11.6113C59.3423 11.7463 59.3125 11.892 59.3135 12.0392V14.6979H58.4224L58.4224 10.1949Z" fill="white"/>
<path d="M64.3981 10.1949H65.2565V10.9102H65.3231C65.436 10.6533 65.6266 10.4379 65.8681 10.2941C66.1097 10.1503 66.3902 10.0852 66.6706 10.1079C66.8903 10.0915 67.1109 10.1245 67.3161 10.2046C67.5213 10.2847 67.7057 10.4098 67.8558 10.5707C68.0059 10.7315 68.1178 10.924 68.1832 11.1338C68.2486 11.3436 68.2658 11.5654 68.2336 11.7827V14.6977H67.3424V12.0059C67.3424 11.2823 67.0271 10.9224 66.368 10.9224C66.2188 10.9155 66.0699 10.9408 65.9315 10.9966C65.793 11.0525 65.6683 11.1375 65.5659 11.2459C65.4635 11.3543 65.3858 11.4834 65.3381 11.6246C65.2905 11.7657 65.274 11.9154 65.2898 12.0635V14.6978H64.3981L64.3981 10.1949Z" fill="white"/>
<path d="M69.3548 13.4243C69.3548 12.6138 69.96 12.1465 71.0343 12.0801L72.2575 12.0098V11.6211C72.2575 11.1455 71.9421 10.877 71.333 10.877C70.8355 10.877 70.4908 11.0591 70.3919 11.3774H69.5291C69.6202 10.604 70.3498 10.1079 71.3741 10.1079C72.5062 10.1079 73.1447 10.6699 73.1447 11.6211V14.6978H72.2868V14.0649H72.2163C72.0732 14.2919 71.8722 14.477 71.634 14.6012C71.3957 14.7254 71.1286 14.7843 70.86 14.7719C70.6704 14.7916 70.4788 14.7714 70.2976 14.7127C70.1163 14.654 69.9494 14.5581 69.8076 14.4311C69.6657 14.3042 69.5522 14.149 69.4742 13.9756C69.3962 13.8021 69.3555 13.6144 69.3548 13.4243ZM72.2575 13.0395V12.6631L71.1548 12.7334C70.5329 12.7749 70.2509 12.9858 70.2509 13.3828C70.2509 13.7881 70.6034 14.0239 71.0882 14.0239C71.2302 14.0383 71.3737 14.024 71.5101 13.9819C71.6465 13.9398 71.773 13.8708 71.8821 13.7789C71.9912 13.6871 72.0806 13.5743 72.1451 13.4473C72.2096 13.3202 72.2478 13.1816 72.2575 13.0395Z" fill="white"/>
</g>
<defs>
<clipPath id="clip0_28_46">
<rect width="120" height="40" fill="white"/>
</clipPath>
</defs>
</svg>
