<svg width="22" height="23" viewBox="0 0 22 23" fill="none" xmlns="http://www.w3.org/2000/svg">
<path d="M9.39771 2.2666L10.4817 1.18262C10.9407 0.723633 11.6829 0.723633 12.137 1.18262L21.6292 10.6699C22.0881 11.1289 22.0881 11.8711 21.6292 12.3252L12.137 21.8174C11.678 22.2764 10.9358 22.2764 10.4817 21.8174L9.39771 20.7334C8.93384 20.2695 8.9436 19.5127 9.41724 19.0586L15.301 13.4531H1.26782C0.618408 13.4531 0.0959473 12.9307 0.0959473 12.2813V10.7188C0.0959473 10.0693 0.618408 9.54688 1.26782 9.54688H15.301L9.41724 3.94141C8.93872 3.4873 8.92896 2.73047 9.39771 2.2666Z" fill="#E9D68F"/>
</svg>
