<svg width="22" height="22" viewBox="0 0 22 22" fill="none" xmlns="http://www.w3.org/2000/svg">
<path d="M12.5757 20.5132L11.4917 21.5972C11.0327 22.0562 10.2905 22.0562 9.83643 21.5972L0.344238 12.1099C-0.114746 11.6509 -0.114746 10.9087 0.344238 10.4546L9.83643 0.962402C10.2954 0.503418 11.0376 0.503418 11.4917 0.962402L12.5757 2.04639C13.0396 2.51025 13.0298 3.26709 12.5562 3.72119L6.67236 9.32666H20.7056C21.355 9.32666 21.8774 9.84912 21.8774 10.4985V12.061C21.8774 12.7105 21.355 13.2329 20.7056 13.2329H6.67236L12.5562 18.8384C13.0347 19.2925 13.0444 20.0493 12.5757 20.5132Z" fill="#E9D68F"/>
</svg>
