<svg width="114" height="65" viewBox="0 0 116 66" fill="none" xmlns="http://www.w3.org/2000/svg">
<path d="M43.2193 36.6675C43.6223 35.8022 44.1552 35.0491 43.747 34.0552C43.497 33.4465 43.1868 33.2593 42.5961 33.5495C42.2467 33.7211 41.8841 33.8655 41.4313 34.0644C41.5167 33.3944 42.0066 33.1085 42.2957 32.7034C42.5898 32.2913 42.9363 31.9173 43.258 31.5251C43.6621 31.0324 43.649 30.4993 43.4272 29.9329C43.2145 29.3899 42.7531 29.5442 42.3512 29.5052C42.1125 29.482 41.8462 29.5768 41.5855 29.3191C41.9046 28.8749 42.419 28.6873 42.8238 28.3693C43.1331 28.1263 43.4897 27.9358 43.7671 27.662C44.5318 26.9074 44.3813 26.1197 43.4323 25.6933C43.239 25.6064 42.9749 25.619 42.8534 25.285C43.2098 24.933 43.7296 24.8961 44.1738 24.712C45.0976 24.329 45.1754 24.0601 44.4708 23.3254C41.0947 19.8049 37.9165 16.1102 34.8865 12.2856C33.7124 10.8036 32.6799 9.22056 31.7887 7.54924C30.6338 5.38325 29.4956 3.20819 28.3575 1.03315C28.2044 0.740661 28.094 0.425552 27.9121 0C28.3847 0.0839582 28.4998 0.385238 28.6638 0.608201C33.8996 7.72559 39.6841 14.3807 45.5496 20.9675C46.0944 21.5792 48.2481 21.1637 48.5696 20.3951C48.7273 20.0181 48.5269 19.749 48.2945 19.4849C48.0224 19.1758 47.6114 18.9875 47.4507 18.488C48.0829 18.2779 48.6588 18.5573 49.236 18.6303C49.936 18.7189 50.627 18.8153 51.3135 18.5794C51.9044 18.3763 52.1547 18.0628 51.7257 17.4523C51.4884 17.1147 51.2267 16.7702 51.1387 16.1373C52.0402 16.4744 52.8562 16.7637 53.6593 17.0855C54.1708 17.2905 54.6585 17.3612 55.2112 17.212C55.8101 17.0502 55.9324 16.7618 55.6712 16.2313C55.4968 15.8772 55.3307 15.5173 55.3127 15.0593C55.6839 14.9912 55.9257 15.2569 56.1895 15.4182C56.9566 15.8873 57.6821 16.4348 58.4783 16.8443C59.4118 17.3244 59.9129 16.9276 59.8148 15.8894C59.7862 15.5868 59.7037 15.2737 59.9257 14.8706C60.5891 15.2716 60.9615 15.9503 61.4893 16.4526C61.7316 16.6831 61.9138 16.9778 62.1236 17.2431C62.3546 17.535 62.5949 17.8469 63.021 17.7371C63.479 17.619 63.708 17.2654 63.7678 16.8092C63.8119 16.4729 63.8333 16.135 64.062 15.8016C64.3831 15.9261 64.4393 16.2423 64.5644 16.5012C64.9694 17.3398 65.3427 18.1957 65.7867 19.0126C66.1792 19.7351 66.7598 19.7306 67.2089 19.0507C67.4105 18.7455 67.5964 18.43 67.7956 18.1233C67.8225 18.082 67.8859 18.0649 67.9453 18.0287C68.2132 18.1524 68.216 18.4198 68.2629 18.6573C68.383 19.2661 68.4688 19.8832 68.619 20.484C68.7489 21.0032 68.6189 21.7174 69.3132 21.9022C69.9233 22.0646 70.1351 21.4271 70.4607 21.0938C76.2189 15.1973 81.3122 8.7345 86.2902 2.17407C86.8126 1.48571 87.2823 0.750412 87.9295 0.157324C88.1752 0.39088 87.9754 0.555218 87.9051 0.708159C84.9709 7.0919 81.2382 12.928 76.3661 18.0075C74.6327 19.8147 73.0444 21.7628 71.3795 23.6372C71.058 23.9992 70.8042 24.3411 71.119 24.8318C71.4698 25.3787 71.9059 25.0614 72.3204 24.9581C72.6053 24.887 72.8442 24.6135 73.2465 24.776C73.191 25.3742 72.8333 25.8595 72.6208 26.3938C72.4756 26.7588 72.271 27.0948 72.282 27.5158C72.313 28.7118 72.5409 28.9104 73.7053 28.7285C73.9211 28.6948 74.1463 28.6253 74.4393 28.7871C73.9638 29.4729 73.5308 30.1851 73.0079 30.8223C72.6201 31.2949 72.5152 31.8082 72.6922 32.3207C72.8754 32.8511 73.4206 32.562 73.8079 32.6276C74.071 32.6722 74.3671 32.5431 74.6392 32.8104C74.3315 33.3075 73.8308 33.5648 73.3622 33.8303C72.6551 34.2308 72.2721 34.8541 71.9745 35.5763C71.7593 36.0986 71.8169 36.429 72.4244 36.5759C72.8456 36.6778 73.2493 36.853 73.8045 37.0453C73.2692 37.4623 72.7753 37.5315 72.3082 37.6507C71.5834 37.8357 70.939 38.1478 70.4522 38.7399C69.9206 39.3867 69.987 39.7172 70.6952 40.1199C70.9733 40.2781 71.35 40.3136 71.5083 40.7308C70.7844 41.1007 69.9774 40.9705 69.2366 41.1608C68.9361 41.238 68.6435 41.3047 68.3696 41.4607C67.3097 42.0645 67.2663 42.2735 68.0001 43.2461C68.302 43.6461 68.6584 44.0095 68.6685 44.5774C68.6761 45.0064 69.0911 45.0742 69.3888 45.1918C73.4106 46.7803 77.2754 48.7413 81.3142 50.2888C81.5428 50.3764 81.76 50.494 82.1388 50.6704C80.8438 51.6371 79.6537 52.4489 78.1144 52.5788C75.1421 52.8297 72.5847 51.5898 70.0523 50.2939C68.9294 49.7192 67.8316 49.0907 66.8478 48.2728C66.3837 47.887 66.2602 47.6561 66.8461 47.2794C67.7565 46.6941 67.7184 46.4114 66.8893 45.7511C66.3664 45.3346 65.9322 44.8026 65.4722 44.3091C65.1781 43.9935 64.8438 43.7498 64.4511 44.0506C64.0106 44.3881 64.3132 44.7501 64.5284 45.0828C64.6924 45.3364 64.9499 45.5491 64.8785 46.0053C63.4063 45.9921 62.0588 44.5448 60.4708 45.5637C60.3219 46.0265 60.7633 46.4788 60.6374 47.0475C59.9263 46.9209 59.4389 46.3601 58.8079 46.1381C58.7557 46.1857 58.6833 46.2204 58.6824 46.2569C58.6219 48.7146 58.5276 51.1726 58.5373 53.6301C58.5401 54.3141 58.7748 55.029 59.0382 55.6736C59.6226 57.1036 59.5063 58.5282 59.2577 59.9973C58.9567 61.7761 58.7502 63.5711 58.5002 65.3587C58.4709 65.568 58.5449 65.8226 58.1564 66C57.9568 64.8526 57.7584 63.7418 57.5715 62.6291C57.4034 61.6281 57.2771 60.619 57.0791 59.6243C56.8595 58.5217 56.8084 57.4456 57.245 56.3812C57.8466 54.9145 57.9661 53.3814 57.9001 51.8094C57.8219 49.9458 57.9524 48.0784 57.8104 46.2129C57.7658 45.6278 57.548 45.4247 56.9809 45.4426C56.374 45.4618 56.325 45.8384 56.3142 46.2987C56.3071 46.6025 56.3902 46.918 56.1804 47.315C55.5211 46.5847 54.9209 45.8565 54.2532 45.1979C53.5647 44.5187 52.6526 44.7163 52.4613 45.5321C52.4057 45.7692 52.5047 46.0497 52.2126 46.2837C51.7419 45.9469 51.6413 45.3681 51.3901 44.9004C51.1151 44.3883 50.8222 44.3119 50.423 44.7374C50.0375 45.1482 49.6326 45.5441 49.2816 45.9833C48.7112 46.697 48.7729 46.8865 49.5878 47.2745C49.7549 47.3541 49.9799 47.3598 50.0948 47.6557C49.5601 48.2472 48.8448 48.6365 48.1612 49.0385C46.2258 50.1768 44.2766 51.2775 42.1958 52.1549C39.7113 53.2026 37.4334 52.7512 35.1836 51.5603C34.7504 51.331 34.2725 51.1425 33.9025 50.6573C34.7165 50.158 35.5879 49.9355 36.4182 49.6497C38.3095 48.9988 40.1145 48.1589 41.8896 47.2493C43.3933 46.4789 44.9441 45.8371 46.55 45.3181C47.7336 44.9356 48.1653 44.3093 47.9388 43.0887C47.7451 42.045 47.7659 40.8336 46.5123 40.2781C45.9664 40.4566 45.7143 41.1066 45.086 41.3124C44.9739 40.835 45.1214 40.4406 45.1965 40.0411C45.296 39.5114 45.3502 38.978 45.2891 38.4392C45.1687 37.3771 44.4775 37.0116 43.5759 37.5238C43.362 37.6453 43.1336 37.741 42.84 37.8835C42.771 37.3742 43.0394 37.0662 43.2193 36.6675ZM60.9401 17.6871C59.202 17.3375 57.474 17.1483 55.6964 17.5141C52.5918 18.1531 50.058 19.746 47.8154 21.9405C47.2079 22.535 47.1566 22.8949 47.7418 23.5089C50.8486 26.7685 54.0523 29.93 57.2402 33.1075C58.1371 34.0014 58.2251 34.0135 59.1218 33.0772C62.2353 29.8258 65.316 26.5424 68.4226 23.2841C68.8456 22.8405 68.8101 22.5377 68.4065 22.0821C66.4181 19.8375 63.9778 18.3938 60.9401 17.6871ZM52.5156 38.5427C53.105 38.7642 53.6032 38.6136 54.0478 38.1837C54.6346 37.6162 55.2398 37.0681 55.8245 36.4985C56.4581 35.8813 56.4658 35.5395 55.8472 34.9595C53.4031 32.6675 51.0404 30.2931 48.7031 27.891C47.7507 26.9122 46.7125 26.0182 45.6723 25.0472C44.3998 27.2623 44.1024 29.828 44.3146 32.3254C44.5868 35.5297 45.9346 38.4004 48.1606 40.8036C49.7679 42.539 49.738 42.5672 51.4144 40.9526C51.4549 40.9135 51.4907 40.8674 51.5364 40.8361C52.3183 40.3006 52.2103 39.6388 51.8289 38.9156C51.6231 38.5254 51.2561 38.1924 51.2794 37.6446C51.7731 37.8476 52.0795 38.1842 52.5156 38.5427ZM71.7316 32.6066C72.138 30.1334 71.5777 27.7835 70.7874 25.4765C70.5581 24.8071 70.1741 24.9483 69.7401 25.4095C67.0801 28.236 64.4784 31.1204 61.6115 33.7435C60.9994 34.3036 60.3648 34.8602 59.8504 35.592C60.7808 36.5693 61.6937 37.4818 62.5499 38.4454C63.048 39.006 63.4658 38.9677 63.9654 38.4884C64.3368 38.132 64.6811 37.7248 65.405 37.4584C65.0524 38.1474 64.8153 38.6737 64.5216 39.1658C64.2699 39.5875 64.2638 39.9888 64.5699 40.3372C65.0328 40.8639 65.5311 41.3619 66.0429 41.841C66.3498 42.1283 66.6557 42.081 67.0066 41.7981C69.8898 39.4741 71.2731 36.3673 71.7316 32.6066ZM56.2026 39.1399C55.9625 39.3763 55.7453 39.6441 55.4776 39.8427C54.8519 40.3071 54.8002 40.7741 55.3181 41.3742C55.6629 41.7737 56.0475 42.1778 56.2385 42.8373C55.4558 42.561 54.9752 42.068 54.397 41.7429C54.1206 41.5876 53.863 41.4199 53.5511 41.6585C52.8657 42.1829 52.18 42.7061 51.6933 43.4847C52.0462 43.8401 52.4671 43.9811 52.8868 44.1243C54.1872 44.5678 55.5013 44.8811 56.8934 44.9232C57.5616 44.9433 57.7992 44.8497 57.7803 44.1473C57.7319 42.3438 57.7425 40.5388 57.7212 38.7345C57.7184 38.4953 57.7897 38.2138 57.3967 38.0133C57.0468 38.3425 56.6674 38.6994 56.2026 39.1399ZM62.1259 41.8028C61.6517 42.0691 61.3629 42.6107 60.7096 42.7865C60.7762 42.1801 61.1757 41.8319 61.4026 41.4035C61.5658 41.0955 61.7648 40.7723 61.4739 40.4726C60.679 39.6537 59.8355 38.8875 58.9146 38.1882C58.6044 38.5315 58.6751 38.8552 58.673 39.153C58.6622 40.676 58.6626 42.199 58.66 43.7221C58.6577 45.054 58.6579 45.0517 60.0134 44.8845C60.2628 44.8538 60.5185 44.8698 60.7664 44.8316C62.0682 44.6309 63.3108 44.2658 64.531 43.4574C63.7709 42.7483 63.248 41.9131 62.1259 41.8028Z" fill="white"/>
<path d="M20.5631 20.9932C16.1555 19.8138 11.9246 18.3298 7.79504 16.5519C3.97357 14.9067 1.40473 12.089 0 8.09652C0.526203 7.93472 0.907326 8.23503 1.28844 8.39254C8.19354 11.2463 15.2356 13.7162 22.3755 15.8888C28.4905 17.7495 34.6491 19.4649 40.7909 21.2358C41.9943 21.5828 42.1512 21.8936 41.6186 23.0388C40.6461 25.1296 40.6483 25.1159 38.6347 24.7813C32.5811 23.7753 26.5813 22.5107 20.5631 20.9932Z" fill="white"/>
<path d="M88.8524 22.4348C85.8037 23.1249 82.8307 23.8308 79.8399 24.4495C78.5267 24.7212 77.1767 24.8109 75.8448 24.9933C75.5945 25.0276 75.3729 24.9997 75.2861 24.7471C74.9308 23.7121 74.498 22.713 73.7186 21.6034C88.2532 18.0757 102.229 13.4653 115.916 7.87982C116.113 8.50264 115.919 8.8333 115.784 9.1572C114.389 12.5077 112.076 14.9097 108.762 16.4382C102.417 19.3649 95.7487 21.1448 88.8524 22.4348Z" fill="white"/>
<path d="M100.254 26.6219C96.1277 27.6807 91.9671 28.0848 87.8314 28.6234C84.3332 29.0789 80.8173 29.3963 77.3121 29.8005C76.5972 29.8829 76.2375 29.7804 76.2072 28.9171C76.1761 28.0329 75.9102 27.1571 75.7287 26.1782C77.3012 25.8874 78.8046 25.5926 80.3139 25.3332C88.6229 23.9052 96.8926 22.2851 105.071 20.2173C107.078 19.7098 109.134 19.3723 111.039 18.5015C111.242 18.4089 111.468 18.2929 111.67 18.4731C111.92 18.6963 111.743 18.9528 111.658 19.176C110.602 21.9412 108.655 23.8336 105.948 24.9087C104.126 25.6327 102.277 26.3049 100.254 26.6219Z" fill="white"/>
<path d="M21.1575 22.7184C26.911 23.864 32.6298 24.7934 38.3559 25.6793C38.4665 25.6964 38.5757 25.7237 38.6845 25.7508C40.1651 26.1189 40.2529 26.2027 39.9506 27.6803C39.4655 30.0519 39.9822 29.7852 37.5845 29.6218C34.4881 29.4108 31.4098 28.9353 28.3221 28.5878C24.9284 28.2059 21.5389 27.7594 18.1922 27.0971C14.793 26.4243 11.3609 25.7285 8.34361 23.8712C6.50097 22.737 5.23317 21.0846 4.50628 18.7337C10.1306 20.0785 15.61 21.3887 21.1575 22.7184Z" fill="white"/>
<path d="M104.338 28.1929C104.678 28.1794 104.939 27.9828 105.308 28.1879C105.022 29.4269 104.25 30.3405 103.345 31.1868C101.337 33.0631 98.7947 33.495 96.2403 33.9021C89.7235 34.9404 83.1552 34.5085 76.605 34.5914C76.4116 34.5939 76.2097 34.6055 75.9545 34.3941C76.0733 33.4365 76.325 32.4249 76.2832 31.386C76.2686 31.0236 76.5778 30.9451 76.8795 30.9389C80.1858 30.8713 83.4605 30.3641 86.7625 30.2289C90.7107 30.0673 94.6168 29.4882 98.5281 28.9674C100.442 28.7125 102.355 28.4548 104.338 28.1929Z" fill="white"/>
<path d="M30.6582 30.4272C33.3663 30.6172 35.9951 30.8308 38.6333 30.7546C39.2251 30.7375 39.5186 30.9421 39.592 31.5302C39.6896 32.313 39.811 33.0928 39.9319 33.8724C39.9878 34.2327 39.8436 34.4057 39.4895 34.4242C38.9574 34.452 38.4256 34.5073 37.8934 34.5106C34.3021 34.5332 30.6979 34.742 27.1229 34.5061C23.424 34.2619 19.6739 34.2159 16.0686 33.0902C14.7576 32.6809 13.7254 31.8647 12.7867 30.9512C11.979 30.165 11.3496 29.1926 10.7054 28.2012C17.3514 29.0805 23.9309 30.0655 30.6582 30.4272Z" fill="white"/>
<path d="M79.9278 35.779C86.063 36.1702 92.1214 36.5466 98.1596 36.9217C98.3256 37.4299 97.9777 37.628 97.7568 37.8384C95.5751 39.9171 93.1303 41.1867 89.9795 41.2592C85.0056 41.3735 80.1719 40.4677 75.306 39.7314C74.3417 39.5855 74.3484 39.4937 74.7163 38.5797C75.0526 37.7442 75.3451 36.8897 75.6258 36.0331C75.7611 35.6203 75.8894 35.3307 76.4279 35.4033C77.5646 35.5565 78.7095 35.6477 79.9278 35.779Z" fill="white"/>
<path d="M23.9029 40.8714C21.648 40.1001 19.5793 39.1506 18.0639 37.1928C18.5927 36.9058 19.1637 36.9474 19.6873 36.9111C22.7868 36.6962 25.8887 36.5085 28.9919 36.3554C32.57 36.1789 36.1476 36.005 39.7104 35.614C40.0947 35.5718 40.4793 35.4781 40.5901 35.9716C40.868 37.2099 41.2577 38.4045 41.9296 39.5179C41.2667 39.9708 40.5669 39.8977 39.9246 39.9981C36.9939 40.4557 34.0664 40.9729 31.1179 41.2636C28.7381 41.4982 26.312 41.7537 23.9029 40.8714Z" fill="white"/>
<path d="M44.2554 44.716C40.817 45.7593 37.4518 46.8281 33.9578 47.3968C32.1367 47.6931 30.4081 47.5107 28.7941 46.5248C27.9028 45.9804 27.0769 45.3543 26.274 44.6923C26.0877 44.5388 25.8039 44.408 25.9173 44.0934C26.0052 43.8493 26.2607 43.8353 26.4837 43.7987C28.1679 43.522 29.8575 43.2748 31.5346 42.9596C34.9716 42.3136 38.455 41.9045 41.829 40.9336C42.2209 40.8208 42.5749 40.7542 42.8486 41.2032C43.4515 42.1925 44.1383 43.1181 45.0264 43.8764C45.1223 43.9583 45.1606 44.1086 45.224 44.2242C44.9713 44.547 44.6099 44.5539 44.2554 44.716Z" fill="white"/>
<path d="M81.88 47.1184C78.5547 46.5137 75.325 45.8317 72.1863 44.7617C70.9897 44.3538 70.9004 44.1173 71.7359 43.171C72.2966 42.5359 72.8529 41.8989 73.1865 41.1066C73.3943 40.6131 73.7175 40.5532 74.2022 40.6846C78.828 41.9379 83.5239 42.8643 88.2328 43.7332C88.9366 43.8631 89.674 43.6893 90.5107 43.9925C88.0842 46.5163 85.3895 47.8368 81.88 47.1184Z" fill="white"/>
<path d="M62.9496 51.2052C62.4259 50.516 61.8015 49.9751 61.4064 49.1351C62.5221 48.8109 63.578 48.4978 64.6384 48.2009C64.8526 48.141 65.0023 48.3134 65.1448 48.4482C67.7834 50.9436 70.6696 53.1338 73.5275 55.3589C73.6779 55.4759 73.8073 55.6204 73.9991 55.8021C73.308 56.5984 72.3738 56.5238 71.5246 56.6386C68.9895 56.9814 67.2426 55.4622 65.5415 53.9419C64.6233 53.1214 63.8362 52.152 62.9496 51.2052Z" fill="white"/>
<path d="M52.1045 52.4026C50.8856 53.8808 49.3635 54.9017 47.8652 55.9411C46.3839 56.9688 43.4856 56.8635 42.0612 55.7902C42.0613 55.5478 42.2636 55.4699 42.4193 55.3622C45.3822 53.3137 48.1897 51.0687 50.8115 48.5922C51.1804 48.2438 51.5176 48.1184 52.0131 48.307C52.8941 48.6424 53.7971 48.9191 54.7827 49.2512C54.0552 50.4859 53.0562 51.3857 52.1045 52.4026Z" fill="white"/>
<path d="M55.4323 11.9157C54.1848 9.86203 55.116 8.18428 56.7318 7.21651C58.2256 6.32179 60.7091 7.90332 60.8918 9.65161C61.0885 11.5338 59.1215 13.506 57.6979 13.2026C56.8195 13.0154 56.0646 12.6508 55.4323 11.9157ZM58.0875 7.5613C57.6039 7.47588 57.1246 7.54127 57.0029 8.07621C56.7066 9.37858 56.709 10.7011 56.9897 12.0102C57.0918 12.4864 57.5153 12.5426 57.9151 12.581C58.2841 12.6164 58.6567 12.5051 58.7325 12.1394C59.0265 10.7212 59.0114 9.29765 58.5874 7.90132C58.5487 7.77379 58.3341 7.70051 58.0875 7.5613Z" fill="white"/>
<path d="M66.6172 8.82511C66.8414 8.93692 67.4598 9.24609 67.8071 9.50128C68.2537 9.82944 67.9492 10.6499 67.3523 10.8067C67.0649 10.8822 66.7197 10.7771 66.4411 11.208C67.6713 12.2557 66.2895 13.421 66.5248 14.6108C65.8505 14.9551 65.4896 14.3294 65.0972 14.0441C64.7761 13.8107 65.0773 13.3783 65.2524 13.0543C65.8134 12.0168 65.6002 11.1189 64.7557 10.8102C64.3448 10.6599 64.103 10.711 64.0552 11.1875C64.0121 11.618 63.772 11.9837 63.6638 12.3878C63.5651 12.7567 63.5722 13.1543 63.5195 13.6668C62.852 13.3173 62.1847 13.1981 61.2836 12.9606C62.5711 12.1071 62.6094 10.8397 62.9446 9.69822C63.1152 9.11734 63.1654 8.87386 63.3337 8.23119C63.4858 7.65083 63.4179 7.65945 64.4282 7.97667C65.4385 8.29389 66.3157 8.67467 66.6172 8.82511ZM64.6162 9.58059C64.4397 10.4265 65.1208 10.5029 65.6242 10.6055C66.062 10.6946 66.3582 10.2884 66.4249 9.9031C66.5241 9.33017 66.0778 9.04101 65.6231 8.87386C65.1078 8.68441 64.7594 8.899 64.6162 9.58059Z" fill="white"/>
<path d="M43.2844 12.1802C43.7681 11.153 44.9249 10.9391 45.4722 10.0382C46.2583 10.3889 46.3616 11.1402 46.6885 11.8836C46.0446 11.7777 45.5092 11.624 44.9513 11.6813C44.146 11.764 43.7926 12.2075 44.0863 12.9353C44.5879 14.1788 45.3655 15.2509 46.3129 16.1917C46.5401 16.4172 46.8167 16.5333 47.1497 16.3369C47.506 16.1268 47.6673 15.8418 47.6133 15.4267C47.5304 14.7899 47.0933 14.3618 46.1567 14.0841C46.5738 13.3647 47.2785 13.0128 47.8603 12.4159C48.3966 13.2464 48.9183 13.9828 49.6671 14.7799C48.8144 14.7676 48.5393 15.1769 48.2778 15.7239C47.6865 16.9605 46.5352 17.3742 45.1525 16.9491C43.5435 16.4545 42.7203 15.386 42.8404 13.9584C42.8906 13.3625 43.0355 12.7921 43.2844 12.1802Z" fill="white"/>
<path d="M50.9503 9.68741C51.2592 10.6944 51.5582 11.6334 51.8611 12.5711C51.9817 12.9443 52.187 13.2263 52.6196 13.2526C53.0579 13.2793 53.3674 13.0805 53.593 12.7143C53.856 12.2875 54.1269 11.8656 54.4151 11.4087C55.0538 12.8123 54.9049 13.1545 53.5942 13.5648C52.5037 13.9061 51.4237 14.2818 50.3408 14.6417C49.6841 12.671 49.978 10.3601 47.6301 9.08866C48.9914 8.57047 50.1437 8.13182 51.446 7.6361C51.2205 8.40448 50.784 8.94694 50.9503 9.68741Z" fill="white"/>
<path d="M70.8635 10.6634C71.1866 10.9386 71.4599 11.1825 71.7458 11.4103C72.2875 11.8417 72.7517 12.2657 72.0917 12.9853C71.9653 13.1232 71.9707 13.6343 71.9707 13.6343C71.9707 13.6343 71.9615 14.1132 72.1767 14.2296C72.3956 14.3481 72.7907 14.0614 72.7907 14.0614C72.7907 14.0614 73.2187 13.3581 73.4747 12.9913C73.899 13.0526 74.268 13.1987 74.6936 13.6173C72.9372 14.6151 70.7697 15.0526 70.2372 17.4699C69.5793 16.9868 69.0303 16.5836 68.3275 16.0675C70.5408 14.5946 71.0022 12.63 69.9559 10.3173C70.4446 10.1957 70.6009 10.4771 70.8635 10.6634Z" fill="white"/>
<path d="M57.8107 20.4921C57.9675 20.2582 58.0531 20.0345 58.3416 19.9853C58.7475 20.2177 58.8865 20.6761 59.0475 21.0696C59.4277 21.9988 60.0222 22.4214 61.0475 22.2883C61.5213 22.2268 62.0466 22.189 62.5471 22.4686C62.3902 23.2097 61.9084 23.7407 61.5544 24.3286C61.2776 24.7883 61.2241 25.1518 61.52 25.6409C61.8788 26.2342 62.2841 26.8184 62.4922 27.528C61.9014 27.8887 61.2694 27.7479 60.678 27.7237C59.89 27.6915 59.3402 27.9206 58.9925 28.6712C58.8079 29.0699 58.5854 29.4766 58.1853 29.7797C57.6124 29.5462 57.466 28.9543 57.1867 28.4992C56.8593 27.9659 56.4783 27.6995 55.8287 27.7188C55.1151 27.7401 54.3978 27.6376 53.6115 27.5842C53.8512 26.7915 54.3408 26.2787 54.7738 25.7492C55.1949 25.2342 55.2304 24.7992 54.8542 24.2389C54.4706 23.6676 54.0547 23.0987 53.76 22.2423C55.4547 22.3718 57.1021 22.4886 57.8107 20.4921ZM60.1385 25.9834C59.6785 25.2306 59.4949 24.4788 60.294 23.6674C59.1721 23.733 58.6392 23.0704 58.1181 22.1139C57.7353 23.2797 56.9963 23.5808 55.7806 23.376C56.7017 24.4202 56.7019 25.2756 55.9022 26.199C57.1427 25.8858 57.6403 26.656 58.1908 27.7316C58.4415 26.4082 59.3466 26.3579 60.1385 25.9834Z" fill="white"/>
</svg>
