<svg width="41" height="36" viewBox="0 0 60 49" fill="none" xmlns="http://www.w3.org/2000/svg">
<path d="M46.7866 37.3686C46.3975 37.3686 46.0162 37.26 45.6852 37.0549C45.3543 36.8497 45.0868 36.5562 44.9128 36.2072C44.7388 35.8582 44.6652 35.4676 44.7001 35.079C44.7351 34.6903 44.8772 34.3192 45.1106 34.007C47.2462 31.1338 48.3998 27.6459 48.3998 24.0622C48.3998 20.4786 47.2462 16.9906 45.1106 14.1174C44.7773 13.6716 44.6341 13.1113 44.7127 12.5597C44.7913 12.008 45.0851 11.5103 45.5296 11.176C45.9741 10.8416 46.5328 10.6981 47.0828 10.7769C47.6329 10.8557 48.1292 11.1504 48.4625 11.5962C53.9373 18.9357 53.9373 29.1887 48.4625 36.5282C48.0435 37.0885 47.429 37.3686 46.7866 37.3686Z" fill="#E9D68F"/>
<path d="M51.8926 44.3721C51.5036 44.3721 51.1222 44.2635 50.7913 44.0583C50.4603 43.8532 50.1929 43.5597 50.0189 43.2107C49.8449 42.8617 49.7713 42.471 49.8062 42.0824C49.8411 41.6938 49.9833 41.3226 50.2167 41.0105C57.6746 31.0377 57.6746 17.0869 50.2167 7.1141C49.8833 6.66832 49.7402 6.10798 49.8188 5.55636C49.8974 5.00474 50.1912 4.50701 50.6357 4.17268C51.0802 3.83834 51.6389 3.69479 52.1889 3.77359C52.7389 3.85239 53.2352 4.1471 53.5686 4.59288C62.1438 16.0504 62.1438 32.0742 53.5686 43.5317C53.1775 44.092 52.5351 44.3721 51.8926 44.3721ZM35.6696 1.04076C32.5411 -0.696079 28.5468 -0.247863 24.4687 2.30137L16.3125 7.42785C15.7538 7.76401 15.1114 7.96011 14.4689 7.96011H10.4746C3.715 7.96011 0 11.6859 0 18.4652V29.6706C0 36.4499 3.715 40.1757 10.4746 40.1757H14.4689C15.1114 40.1757 15.7538 40.3718 16.3125 40.7079L24.4687 45.8344C26.9267 47.3752 29.3289 48.1315 31.5635 48.1315C32.9981 48.1442 34.4119 47.7874 35.6696 47.095C38.7701 45.3582 40.5019 41.7444 40.5019 36.9261V11.2097C40.5019 6.39135 38.7701 2.7776 35.6696 1.04076Z" fill="#E9D68F"/>
</svg>
