<svg width="41" height="36" viewBox="0 0 61 56" fill="none" xmlns="http://www.w3.org/2000/svg">
<path d="M47.3 41.1717C46.9111 41.1717 46.5299 41.0634 46.1991 40.8589C45.8683 40.6545 45.6009 40.362 45.427 40.0141C45.2531 39.6663 45.1795 39.2769 45.2144 38.8896C45.2493 38.5023 45.3914 38.1323 45.6247 37.8212C47.3507 35.5137 48.4441 32.7954 48.7967 29.9355C49.1493 27.0756 48.7489 24.1731 47.635 21.5155C47.4215 21.0044 47.4191 20.4296 47.6284 19.9167C47.8377 19.4039 48.2417 18.9949 48.7519 18.7793C49.8129 18.3325 51.0414 18.8351 51.4881 19.8961C54.336 26.6529 53.3588 34.4986 48.9752 40.362C48.5564 40.8925 47.9422 41.1717 47.3 41.1717Z" fill="black"/>
<path d="M52.4039 48.1521C52.015 48.1521 51.6338 48.0438 51.3029 47.8394C50.9721 47.6349 50.7048 47.3424 50.5309 46.9945C50.357 46.6467 50.2833 46.2573 50.3183 45.87C50.3532 45.4827 50.4953 45.1127 50.7286 44.8016C56.7037 36.8442 58.0159 26.1785 54.1629 16.9926C53.9493 16.4815 53.9469 15.9066 54.1562 15.3938C54.3655 14.881 54.7695 14.472 55.2797 14.2563C56.3407 13.8096 57.5692 14.3122 58.0159 15.3732C62.4553 25.9272 60.9476 38.1565 54.0791 47.3145C53.6882 47.8729 53.046 48.1521 52.4039 48.1521ZM36.2433 30.5844C38.0023 28.8254 41.0178 30.0818 41.0178 32.5667V40.7475C41.0178 45.5499 39.2867 49.1517 36.1875 50.8827C34.9304 51.5728 33.5171 51.9285 32.0831 51.9158C29.8495 51.9158 27.4483 51.1619 24.9913 49.6263L23.2044 48.5095C21.6966 47.5602 21.4453 45.4382 22.7018 44.1818L36.2433 30.5844ZM57.8261 0.628217C56.9884 -0.209405 55.6203 -0.209405 54.7827 0.628217L40.9619 14.449C40.7944 9.98166 39.1192 6.63117 36.1596 4.98385C33.0325 3.25277 29.0398 3.6995 24.9634 6.24028L16.8384 11.3219C16.28 11.6569 15.6378 11.8524 14.9957 11.8524H11.003C4.24617 11.8524 0.532715 15.5658 0.532715 22.3226V33.4909C0.532715 40.2477 4.24617 43.9612 11.003 43.9612H11.4497L3.24103 52.1699C2.4034 53.0075 2.4034 54.3756 3.24103 55.2132C3.68776 55.6041 4.21825 55.8275 4.77667 55.8275C5.33508 55.8275 5.86557 55.6041 6.28439 55.1853L57.8261 3.64366C58.6916 2.80603 58.6916 1.46584 57.8261 0.628217Z" fill="black"/>
</svg>
