<svg width="135" height="40" viewBox="0 0 135 40" fill="none" xmlns="http://www.w3.org/2000/svg">
<g clip-path="url(#clip0_28_76)">
<path d="M130 0H5C2.23858 0 0 2.23858 0 5V35C0 37.7614 2.23858 40 5 40H130C132.761 40 135 37.7614 135 35V5C135 2.23858 132.761 0 130 0Z" fill="black"/>
<path d="M130 0.8C131.114 0.8 132.182 1.2425 132.97 2.03015C133.758 2.8178 134.2 3.88609 134.2 5V35C134.2 36.1139 133.758 37.1822 132.97 37.9698C132.182 38.7575 131.114 39.2 130 39.2H5C3.88609 39.2 2.8178 38.7575 2.03015 37.9698C1.2425 37.1822 0.8 36.1139 0.8 35V5C0.8 3.88609 1.2425 2.8178 2.03015 2.03015C2.8178 1.2425 3.88609 0.8 5 0.8H130ZM130 0H5C3.67392 0 2.40215 0.526784 1.46447 1.46447C0.526784 2.40215 0 3.67392 0 5V35C0 36.3261 0.526784 37.5979 1.46447 38.5355C2.40215 39.4732 3.67392 40 5 40H130C131.326 40 132.598 39.4732 133.536 38.5355C134.473 37.5979 135 36.3261 135 35V5C135 3.67392 134.473 2.40215 133.536 1.46447C132.598 0.526784 131.326 0 130 0Z" fill="#A6A6A6"/>
<path d="M68.14 21.7501C67.3003 21.7541 66.4806 22.0067 65.7843 22.4761C65.088 22.9455 64.5464 23.6106 64.2278 24.3875C63.9092 25.1644 63.8279 26.0183 63.9941 26.8414C64.1604 27.6645 64.5667 28.4199 65.1619 29.0123C65.757 29.6047 66.5143 30.0075 67.3382 30.1699C68.1621 30.3322 69.0156 30.2469 69.791 29.9247C70.5664 29.6024 71.229 29.0577 71.6951 28.3592C72.1612 27.6607 72.41 26.8398 72.41 26.0001C72.4182 25.4381 72.3131 24.8801 72.1012 24.3595C71.8892 23.8388 71.5747 23.3662 71.1763 22.9696C70.7778 22.5731 70.3037 22.2607 69.7821 22.0512C69.2605 21.8417 68.702 21.7393 68.14 21.7501ZM68.14 28.5801C67.6236 28.6162 67.1082 28.4962 66.661 28.2355C66.2137 27.9748 65.8552 27.5857 65.632 27.1186C65.4089 26.6514 65.3314 26.128 65.4097 25.6163C65.488 25.1045 65.7184 24.6282 66.071 24.2492C66.4236 23.8701 66.882 23.6059 67.3868 23.4909C67.8915 23.3759 68.4192 23.4154 68.9012 23.6042C69.3832 23.7931 69.7973 24.1225 70.0895 24.5498C70.3818 24.9771 70.5387 25.4824 70.54 26.0001C70.5561 26.3281 70.5064 26.656 70.3937 26.9645C70.2811 27.273 70.1078 27.5558 69.8841 27.7963C69.6605 28.0368 69.3909 28.23 69.0914 28.3646C68.7918 28.4992 68.4683 28.5725 68.14 28.5801ZM58.83 21.7501C57.9899 21.7521 57.1692 22.003 56.4716 22.4712C55.774 22.9394 55.2308 23.6039 54.9107 24.3806C54.5905 25.1574 54.5078 26.0116 54.6729 26.8354C54.838 27.6591 55.2436 28.4155 55.8383 29.0088C56.4331 29.6022 57.1904 30.006 58.0145 30.1692C58.8387 30.3324 59.6927 30.2476 60.4687 29.9256C61.2447 29.6037 61.9079 29.0589 62.3744 28.3602C62.841 27.6616 63.09 26.8403 63.09 26.0001C63.0982 25.4381 62.9931 24.8801 62.7812 24.3595C62.5692 23.8388 62.2547 23.3662 61.8563 22.9696C61.4578 22.5731 60.9837 22.2607 60.4621 22.0512C59.9405 21.8417 59.382 21.7393 58.82 21.7501H58.83ZM58.83 28.5801C58.3133 28.6183 57.7971 28.5 57.3486 28.2407C56.9001 27.9814 56.5401 27.593 56.3154 27.1262C56.0906 26.6594 56.0117 26.1358 56.0887 25.6234C56.1658 25.1111 56.3952 24.6339 56.7473 24.2538C57.0994 23.8737 57.5577 23.6085 58.0627 23.4925C58.5676 23.3766 59.0958 23.4154 59.5784 23.6038C60.061 23.7922 60.4757 24.1216 60.7685 24.549C61.0613 24.9764 61.2186 25.482 61.22 26.0001C61.2361 26.3281 61.1864 26.656 61.0737 26.9645C60.9611 27.273 60.7878 27.5558 60.5641 27.7963C60.3405 28.0368 60.0709 28.23 59.7714 28.3646C59.4718 28.4992 59.1483 28.5725 58.82 28.5801H58.83ZM47.74 23.0601V24.8601H52.06C51.9923 25.7079 51.6399 26.5079 51.06 27.1301C50.6278 27.5704 50.1082 27.9152 49.5347 28.1426C48.9612 28.3699 48.3464 28.4747 47.73 28.4501C46.457 28.4501 45.2361 27.9444 44.3359 27.0442C43.4357 26.1441 42.93 24.9232 42.93 23.6501C42.93 22.3771 43.4357 21.1562 44.3359 20.256C45.2361 19.3558 46.457 18.8501 47.73 18.8501C48.9478 18.8303 50.1238 19.2942 51 20.1401L52.27 18.8701C51.6785 18.2711 50.9728 17.797 50.1946 17.4758C49.4165 17.1546 48.5818 16.9928 47.74 17.0001C46.851 16.9655 45.9642 17.1107 45.1326 17.4271C44.3011 17.7434 43.542 18.2244 42.9008 18.8411C42.2596 19.4579 41.7494 20.1977 41.401 21.0163C41.0526 21.8349 40.873 22.7154 40.873 23.6051C40.873 24.4948 41.0526 25.3753 41.401 26.1939C41.7494 27.0125 42.2596 27.7524 42.9008 28.3691C43.542 28.9859 44.3011 29.4668 45.1326 29.7831C45.9642 30.0995 46.851 30.2447 47.74 30.2101C48.596 30.2488 49.4503 30.1037 50.2454 29.7846C51.0406 29.4655 51.7582 28.9798 52.35 28.3601C53.3977 27.209 53.9571 25.6959 53.91 24.1401C53.9132 23.7611 53.8797 23.3827 53.81 23.0101L47.74 23.0601ZM93.05 24.4601C92.7892 23.6929 92.3015 23.0229 91.6515 22.539C91.0015 22.055 90.2198 21.7799 89.41 21.7501C88.863 21.749 88.3216 21.8602 87.8192 22.0767C87.3169 22.2931 86.8643 22.6103 86.4894 23.0087C86.1145 23.407 85.8253 23.878 85.6396 24.3925C85.454 24.907 85.3758 25.4542 85.41 26.0001C85.3979 26.559 85.4985 27.1147 85.7059 27.6338C85.9133 28.153 86.2232 28.625 86.6171 29.0217C87.011 29.4184 87.4808 29.7316 87.9985 29.9427C88.5161 30.1538 89.071 30.2583 89.63 30.2501C90.3295 30.2539 91.019 30.0841 91.6368 29.756C92.2546 29.4279 92.7814 28.9518 93.17 28.3701L91.72 27.3701C91.5036 27.7309 91.1972 28.0293 90.8309 28.2362C90.4645 28.443 90.0507 28.5512 89.63 28.5501C89.1968 28.5666 88.7687 28.4524 88.4013 28.2224C88.034 27.9923 87.7443 27.657 87.57 27.2601L93.26 24.9101L93.05 24.4601ZM87.25 25.8801C87.2297 25.5708 87.2714 25.2606 87.3725 24.9676C87.4737 24.6745 87.6322 24.4047 87.839 24.1737C88.0457 23.9428 88.2965 23.7554 88.5765 23.6225C88.8566 23.4897 89.1604 23.4141 89.47 23.4001C89.7926 23.3789 90.1143 23.4528 90.3952 23.6128C90.6761 23.7728 90.9038 24.0118 91.05 24.3001L87.25 25.8801ZM82.63 30.0001H84.5V17.5001H82.63V30.0001ZM79.57 22.7001H79.5C79.2182 22.385 78.8729 22.133 78.4869 21.9607C78.1009 21.7884 77.6828 21.6996 77.26 21.7001C76.1672 21.7531 75.1367 22.2245 74.382 23.0167C73.6273 23.8089 73.2063 24.861 73.2063 25.9551C73.2063 27.0492 73.6273 28.1014 74.382 28.8935C75.1367 29.6857 76.1672 30.1571 77.26 30.2101C77.6838 30.2172 78.1039 30.1314 78.491 29.9586C78.878 29.7859 79.2224 29.5304 79.5 29.2101H79.56V29.8201C79.56 31.4501 78.69 32.3201 77.29 32.3201C76.8237 32.3092 76.3712 32.1598 75.9901 31.8909C75.6091 31.622 75.3166 31.2458 75.15 30.8101L73.52 31.4901C73.8268 32.2365 74.3496 32.8742 75.0213 33.3214C75.6931 33.7686 76.4831 34.0049 77.29 34.0001C79.48 34.0001 81.29 32.7101 81.29 29.5701V22.0001H79.57V22.7001ZM77.43 28.5801C76.785 28.5233 76.1846 28.2269 75.7473 27.7493C75.31 27.2717 75.0674 26.6477 75.0674 26.0001C75.0674 25.3526 75.31 24.7285 75.7473 24.2509C76.1846 23.7734 76.785 23.477 77.43 23.4201C77.7498 23.4365 78.0631 23.5168 78.3515 23.6562C78.6398 23.7955 78.8973 23.9912 79.1089 24.2316C79.3204 24.472 79.4817 24.7524 79.5832 25.0561C79.6847 25.3598 79.7244 25.6808 79.7 26.0001C79.7273 26.3208 79.6892 26.6437 79.5882 26.9493C79.4871 27.2548 79.3251 27.5367 79.112 27.7779C78.8988 28.0191 78.639 28.2145 78.3482 28.3524C78.0574 28.4903 77.7416 28.5678 77.42 28.5801H77.43ZM101.81 17.5001H97.34V30.0001H99.21V25.2601H101.82C102.353 25.2984 102.888 25.2265 103.392 25.0488C103.896 24.8712 104.358 24.5916 104.749 24.2276C105.14 23.8636 105.452 23.4229 105.665 22.933C105.879 22.443 105.989 21.9144 105.989 21.3801C105.989 20.8458 105.879 20.3172 105.665 19.8273C105.452 19.3374 105.14 18.8967 104.749 18.5326C104.358 18.1686 103.896 17.889 103.392 17.7114C102.888 17.5337 102.353 17.4618 101.82 17.5001H101.81ZM101.81 23.5001H99.2V19.2401H101.85C102.419 19.2401 102.964 19.4661 103.367 19.8684C103.769 20.2706 103.995 20.8162 103.995 21.3851C103.995 21.954 103.769 22.4996 103.367 22.9019C102.964 23.3041 102.419 23.5301 101.85 23.5301L101.81 23.5001ZM113.34 21.7001C112.659 21.6594 111.981 21.8185 111.39 22.1578C110.798 22.4972 110.319 23.0019 110.01 23.6101L111.67 24.3001C111.834 23.9985 112.082 23.7509 112.383 23.5876C112.685 23.4242 113.028 23.3522 113.37 23.3801C113.607 23.3524 113.848 23.3722 114.078 23.4384C114.307 23.5047 114.521 23.616 114.708 23.7658C114.894 23.9157 115.048 24.1011 115.162 24.3113C115.276 24.5215 115.346 24.7523 115.37 24.9901V25.1201C114.769 24.8021 114.1 24.6372 113.42 24.6401C111.63 24.6401 109.82 25.6401 109.82 27.4501C109.838 27.8361 109.933 28.2145 110.099 28.5632C110.265 28.9118 110.5 29.2235 110.789 29.4799C111.078 29.7363 111.416 29.9321 111.782 30.0558C112.148 30.1795 112.535 30.2286 112.92 30.2001C113.391 30.2339 113.862 30.1404 114.285 29.9292C114.707 29.7181 115.065 29.3971 115.32 29.0001H115.38V30.0001H117.18V25.1901C117.18 23.0001 115.52 21.7301 113.39 21.7301L113.34 21.7001ZM113.11 28.5501C112.5 28.5501 111.65 28.2401 111.65 27.4901C111.65 26.4901 112.71 26.1601 113.65 26.1601C114.244 26.1455 114.831 26.2905 115.35 26.5801C115.287 27.1215 115.031 27.6221 114.629 27.9896C114.227 28.3571 113.705 28.5668 113.16 28.5801L113.11 28.5501ZM123.74 22.0001L121.6 27.4201H121.54L119.32 22.0001H117.32L120.65 29.5801L118.75 33.7901H120.7L125.82 22.0001H123.74ZM106.93 30.0001H108.8V17.5001H106.93V30.0001Z" fill="white"/>
<path d="M10.44 7.53997C10.1141 7.93108 9.94955 8.43177 9.97999 8.93997V31.06C9.94955 31.5682 10.1141 32.0689 10.44 32.46L10.51 32.53L22.9 20.15V19.86L10.51 7.46997L10.44 7.53997Z" fill="url(#paint0_linear_28_76)"/>
<path d="M27 24.28L22.9 20.15V19.86L27 15.72L27.09 15.77L32 18.56C33.4 19.35 33.4 20.65 32 21.45L27.11 24.23L27 24.28Z" fill="url(#paint1_linear_28_76)"/>
<path d="M27.12 24.22L22.9 20L10.44 32.46C10.7254 32.7109 11.0894 32.8541 11.4692 32.8651C11.849 32.876 12.2207 32.754 12.52 32.52L27.13 24.22" fill="url(#paint2_linear_28_76)"/>
<path d="M27.12 15.78L12.51 7.48005C12.2106 7.24606 11.839 7.124 11.4592 7.13496C11.0794 7.14591 10.7154 7.2892 10.43 7.54005L22.9 20L27.12 15.78Z" fill="url(#paint3_linear_28_76)"/>
<path opacity="0.2" d="M27 24.1299L12.51 32.3799C12.2213 32.5957 11.8705 32.7124 11.51 32.7124C11.1495 32.7124 10.7987 32.5957 10.51 32.3799L10.44 32.4499L10.51 32.5199C10.7981 32.7373 11.1491 32.8549 11.51 32.8549C11.8709 32.8549 12.2219 32.7373 12.51 32.5199L27.12 24.2199L27 24.1299Z" fill="black"/>
<path opacity="0.12" d="M10.44 32.32C10.1141 31.9289 9.94955 31.4282 9.97999 30.92V31.07C9.94955 31.5782 10.1141 32.0789 10.44 32.47L10.51 32.4L10.44 32.32ZM32 21.3L27 24.13L27.09 24.22L32 21.44C32.2786 21.3091 32.5177 21.1071 32.6933 20.8543C32.8689 20.6014 32.9747 20.3068 33 20C32.9438 20.2787 32.8244 20.5408 32.651 20.7662C32.4777 20.9915 32.2549 21.1742 32 21.3Z" fill="black"/>
<path opacity="0.25" d="M12.51 7.61994L32 18.6999C32.255 18.8258 32.4777 19.0084 32.651 19.2338C32.8244 19.4591 32.9438 19.7212 33 19.9999C32.9747 19.6932 32.8689 19.3985 32.6933 19.1457C32.5178 18.8929 32.2786 18.6908 32 18.5599L12.51 7.47994C11.11 6.68994 9.97 7.34994 9.97 8.94994V9.09994C10 7.48994 11.12 6.82994 12.51 7.61994Z" fill="white"/>
<path d="M41.34 13V6.99996H43.18C43.5854 6.98166 43.9902 7.04578 44.3701 7.18844C44.7499 7.33111 45.0969 7.54935 45.39 7.82996C45.6667 8.11714 45.8821 8.45761 46.0231 8.83067C46.164 9.20372 46.2276 9.60155 46.21 9.99996C46.2263 10.3991 46.1611 10.7973 46.0184 11.1704C45.8757 11.5435 45.6585 11.8836 45.38 12.17C45.0869 12.4506 44.7399 12.6688 44.3601 12.8115C43.9802 12.9541 43.5753 13.0183 43.17 13H41.34ZM42.11 12.26H43.17C43.4712 12.2756 43.7725 12.2306 44.0559 12.1275C44.3394 12.0245 44.5992 11.8655 44.82 11.66C45.0295 11.4395 45.1917 11.1785 45.2966 10.893C45.4015 10.6075 45.4469 10.3036 45.43 9.99996C45.4557 9.69756 45.4152 9.3932 45.3113 9.10803C45.2074 8.82287 45.0427 8.56374 44.8286 8.34867C44.6145 8.13359 44.3561 7.96773 44.0714 7.86261C43.7867 7.75749 43.4825 7.71564 43.18 7.73996H42.11V12.26ZM47.3 13V6.99996H48.07V13H47.3ZM51.13 13.13C50.6693 13.1217 50.2223 12.9715 49.85 12.7C49.4358 12.4169 49.1432 11.9886 49.03 11.5L49.73 11.22C49.8102 11.5427 49.9884 11.8326 50.24 12.05C50.4804 12.2695 50.7944 12.3908 51.12 12.39C51.4274 12.4001 51.7297 12.3088 51.98 12.13C52.0955 12.0497 52.189 11.9417 52.2519 11.8159C52.3148 11.6901 52.3451 11.5505 52.34 11.41C52.3463 11.2621 52.3169 11.1149 52.2543 10.9809C52.1916 10.8468 52.0975 10.7299 51.98 10.64C51.6348 10.4074 51.2527 10.235 50.85 10.13C50.4018 10.0098 49.9876 9.78729 49.64 9.47996C49.5069 9.35015 49.4019 9.19443 49.3314 9.02244C49.2609 8.85044 49.2264 8.66582 49.23 8.47996C49.2303 8.26772 49.276 8.058 49.364 7.86485C49.4519 7.67169 49.5801 7.49955 49.74 7.35996C50.1034 7.03206 50.5809 6.85972 51.07 6.87996C51.5148 6.8598 51.9529 6.99405 52.31 7.25996C52.5953 7.46816 52.8113 7.75736 52.93 8.08996L52.23 8.37996C52.1687 8.16721 52.0386 7.9808 51.86 7.84996C51.6371 7.68964 51.3695 7.60339 51.095 7.60339C50.8205 7.60339 50.5529 7.68964 50.33 7.84996C50.2323 7.92074 50.153 8.01406 50.0991 8.122C50.0451 8.22994 50.018 8.3493 50.02 8.46996C50.0196 8.58118 50.0457 8.69089 50.0961 8.79002C50.1465 8.88914 50.2199 8.97482 50.31 9.03996C50.5679 9.22407 50.8554 9.36274 51.16 9.44996C51.4116 9.52972 51.6586 9.62319 51.9 9.72996C52.1119 9.82888 52.313 9.94953 52.5 10.09C52.6979 10.2309 52.8562 10.4203 52.96 10.64C53.0698 10.8816 53.1244 11.1446 53.12 11.41C53.1249 11.6808 53.0631 11.9487 52.94 12.19C52.8278 12.4073 52.6627 12.593 52.46 12.73C52.2635 12.8649 52.0477 12.9694 51.82 13.04C51.5956 13.1033 51.3631 13.1336 51.13 13.13ZM55 13H54.23V6.99996H56.23C56.7193 6.99365 57.1921 7.17634 57.55 7.50996C57.727 7.67292 57.8682 7.8708 57.9648 8.09112C58.0615 8.31143 58.1114 8.54939 58.1114 8.78996C58.1114 9.03053 58.0615 9.26849 57.9648 9.4888C57.8682 9.70912 57.727 9.907 57.55 10.07C57.1926 10.4045 56.7194 10.5873 56.23 10.58H55V13ZM55 9.82996H56.3C56.4462 9.83538 56.5919 9.80863 56.7267 9.75161C56.8614 9.69459 56.9821 9.60869 57.08 9.49996C57.1768 9.40668 57.2538 9.29484 57.3063 9.17113C57.3589 9.04742 57.386 8.91438 57.386 8.77996C57.386 8.64554 57.3589 8.5125 57.3063 8.38879C57.2538 8.26508 57.1768 8.15324 57.08 8.05996C56.9821 7.95123 56.8614 7.86533 56.7267 7.80831C56.5919 7.75129 56.4462 7.72454 56.3 7.72996H55V9.82996ZM64 12.22C63.4154 12.8013 62.6245 13.1276 61.8 13.1276C60.9755 13.1276 60.1846 12.8013 59.6 12.22C59.0318 11.6185 58.7152 10.8224 58.7152 9.99496C58.7152 9.16752 59.0318 8.37144 59.6 7.76996C59.8881 7.4797 60.2309 7.24934 60.6085 7.09213C60.986 6.93493 61.391 6.85399 61.8 6.85399C62.209 6.85399 62.6139 6.93493 62.9915 7.09213C63.3691 7.24934 63.7118 7.4797 64 7.76996C64.5705 8.37029 64.8886 9.16681 64.8886 9.99496C64.8886 10.8231 64.5705 11.6196 64 12.22ZM60.17 11.72C60.6029 12.1511 61.189 12.3931 61.8 12.3931C62.411 12.3931 62.9971 12.1511 63.43 11.72C63.8572 11.249 64.0939 10.6359 64.0939 9.99996C64.0939 9.36407 63.8572 8.75094 63.43 8.27996C62.9971 7.84884 62.411 7.60679 61.8 7.60679C61.189 7.60679 60.6029 7.84884 60.17 8.27996C59.7428 8.75094 59.5061 9.36407 59.5061 9.99996C59.5061 10.6359 59.7428 11.249 60.17 11.72ZM66 13V6.99996H66.94L69.86 11.67V6.99996H70.63V13H69.83L66.78 8.10996V13H66ZM72 13V6.99996H72.77V13H72ZM72.72 6.52996H72.05L72.49 5.45996H73.33L72.72 6.52996ZM75.64 13L73.53 6.99996H74.38L76 11.87L77.77 6.99996H78.62L76.44 13H75.64ZM83 7.73996H80.26V9.63996H82.72V10.36H80.26V12.26H83V13H79.5V6.99996H83V7.73996ZM84.2 13V6.99996H85V12.26H87.6V13H84.2ZM90.55 13V6.99996H91.49L94.41 11.67V6.99996H95.18V13H94.38L91.33 8.10996V13H90.55ZM101.46 12.22C100.875 12.8013 100.084 13.1276 99.26 13.1276C98.4355 13.1276 97.6446 12.8013 97.06 12.22C96.4918 11.6185 96.1752 10.8224 96.1752 9.99496C96.1752 9.16752 96.4918 8.37144 97.06 7.76996C97.3481 7.4797 97.6909 7.24934 98.0685 7.09213C98.446 6.93493 98.851 6.85399 99.26 6.85399C99.669 6.85399 100.074 6.93493 100.452 7.09213C100.829 7.24934 101.172 7.4797 101.46 7.76996C102.03 8.37029 102.349 9.16681 102.349 9.99496C102.349 10.8231 102.03 11.6196 101.46 12.22ZM97.63 11.72C98.0629 12.1511 98.649 12.3931 99.26 12.3931C99.871 12.3931 100.457 12.1511 100.89 11.72C101.317 11.249 101.554 10.6359 101.554 9.99996C101.554 9.36407 101.317 8.75094 100.89 8.27996C100.457 7.84884 99.871 7.60679 99.26 7.60679C98.649 7.60679 98.0629 7.84884 97.63 8.27996C97.2028 8.75094 96.9661 9.36407 96.9661 9.99996C96.9661 10.6359 97.2028 11.249 97.63 11.72Z" fill="white" stroke="white" stroke-width="0.2" stroke-miterlimit="10"/>
</g>
<defs>
<linearGradient id="paint0_linear_28_76" x1="21.8" y1="8.70997" x2="5.01999" y2="25.49" gradientUnits="userSpaceOnUse">
<stop stop-color="#00A0FF"/>
<stop offset="0.01" stop-color="#00A1FF"/>
<stop offset="0.26" stop-color="#00BEFF"/>
<stop offset="0.51" stop-color="#00D2FF"/>
<stop offset="0.76" stop-color="#00DFFF"/>
<stop offset="1" stop-color="#00E3FF"/>
</linearGradient>
<linearGradient id="paint1_linear_28_76" x1="33.83" y1="20" x2="9.64" y2="20" gradientUnits="userSpaceOnUse">
<stop stop-color="#FFE000"/>
<stop offset="0.41" stop-color="#FFBD00"/>
<stop offset="0.78" stop-color="#FFA500"/>
<stop offset="1" stop-color="#FF9C00"/>
</linearGradient>
<linearGradient id="paint2_linear_28_76" x1="24.83" y1="22.3" x2="2.07" y2="45.05" gradientUnits="userSpaceOnUse">
<stop stop-color="#FF3A44"/>
<stop offset="1" stop-color="#C31162"/>
</linearGradient>
<linearGradient id="paint3_linear_28_76" x1="7.29999" y1="0.180048" x2="17.46" y2="10.34" gradientUnits="userSpaceOnUse">
<stop stop-color="#32A071"/>
<stop offset="0.07" stop-color="#2DA771"/>
<stop offset="0.48" stop-color="#15CF74"/>
<stop offset="0.8" stop-color="#06E775"/>
<stop offset="1" stop-color="#00F076"/>
</linearGradient>
<clipPath id="clip0_28_76">
<rect width="135" height="40" fill="white"/>
</clipPath>
</defs>
</svg>
